<?xml version="1.0" standalone="no"?>
<!DOCTYPE svg PUBLIC "-//W3C//DTD SVG 20010904//EN"
 "http://www.w3.org/TR/2001/REC-SVG-20010904/DTD/svg10.dtd">
<svg version="1.0" xmlns="http://www.w3.org/2000/svg"
 width="800.000000pt" height="800.000000pt" viewBox="0 0 800.000000 800.000000"
 preserveAspectRatio="xMidYMid meet">
<metadata>
Created by potrace 1.11, written by Peter Selinger 2001-2013
</metadata>
<g transform="translate(0.000000,800.000000) scale(0.100000,-0.100000)"
fill="#000000" stroke="none">
<path d="M4089 7981 c-111 -24 -239 -77 -331 -136 -58 -38 -437 -411 -1787
-1759 -942 -941 -1739 -1743 -1770 -1781 -93 -116 -166 -275 -188 -413 -5 -26
-8 -738 -8 -1582 0 -1432 1 -1540 18 -1604 85 -333 312 -570 644 -673 l88 -28
1550 0 c853 0 1569 3 1592 7 134 24 293 97 408 189 33 26 832 821 1776 1766
1841 1843 1774 1772 1846 1950 53 130 72 234 68 383 -5 187 -51 339 -153 495
-35 54 -383 408 -1494 1520 -797 798 -1477 1471 -1512 1497 -81 62 -201 121
-312 153 -120 36 -309 42 -435 16z m401 -1803 l211 -211 -1033 -1033 -1032
-1032 -213 211 -213 212 1032 1032 c568 568 1034 1033 1035 1033 2 0 97 -95
213 -212z m845 -838 l209 -211 -1034 -1034 -1034 -1034 -208 207 c-114 114
-208 211 -208 217 0 9 2050 2065 2060 2065 3 0 99 -95 215 -210z m1045 -1052
c0 -4 -464 -471 -1031 -1038 l-1032 -1032 -208 209 c-115 114 -209 211 -209
215 0 4 464 471 1031 1038 l1032 1031 208 -208 c115 -114 209 -211 209 -215z
m-4501 -1804 c294 -60 517 -278 593 -578 27 -107 21 -285 -12 -391 -138 -438
-605 -658 -1029 -486 -195 79 -353 247 -427 453 -44 123 -52 313 -19 443 52
205 191 381 385 487 147 80 337 107 509 72z"/>
</g>
</svg>
